<?xml version="1.0" encoding="UTF-8" standalone="no"?><!-- Generator: Gravit.io --><svg xmlns="http://www.w3.org/2000/svg" xmlns:xlink="http://www.w3.org/1999/xlink" style="isolation:isolate" viewBox="593.15 38.931 252.757 249.035" width="252.757pt" height="249.035pt"><g><g><path d=" M 720.507 163.709 L 750.46 138.403 L 812.058 184.692 L 796.341 223.509 L 720.507 163.709 Z " fill="rgb(63,52,119)"/><mask id="_mask_Zam0zRLi1TJlyHqNv6gbapaeTlkhHukL"><path d=" M 719.261 179.388 L 689.415 204.82 L 627.623 158.791 L 643.176 119.908 L 719.261 179.388 Z " fill="white" stroke="none"/></mask><path d=" M 719.261 179.388 L 689.415 204.82 L 627.623 158.791 L 643.176 119.908 L 719.261 179.388 Z " fill="rgb(88,127,194)"/><path d=" M 719.261 179.388 L 689.415 204.82 L 627.623 158.791 L 643.176 119.908 L 719.261 179.388 Z " fill="rgb(88,127,194)" mask="url(#_mask_Zam0zRLi1TJlyHqNv6gbapaeTlkhHukL)" vector-effect="non-scaling-stroke" stroke-width="2" stroke="rgb(88,127,194)" stroke-linejoin="miter" stroke-linecap="square" stroke-miterlimit="3"/><path d=" M 764.07 198.244 L 712.99 238.768 L 745.975 261.282 L 796.633 223.296 L 764.07 198.244 Z " fill="rgb(88,127,194)"/><mask id="_mask_Ih6g3oHAsJDXb4o24PFEMQdZQ3nCouzA"><path d=" M 674.983 145.061 L 725.005 104.917 L 692.848 82.428 L 643.246 120.05 L 674.983 145.061 Z " fill="white" stroke="none"/></mask><path d=" M 674.983 145.061 L 725.005 104.917 L 692.848 82.428 L 643.246 120.05 L 674.983 145.061 Z " fill="rgb(63,52,119)"/><path d=" M 674.983 145.061 L 725.005 104.917 L 692.848 82.428 L 643.246 120.05 L 674.983 145.061 Z " fill="rgb(63,52,119)" mask="url(#_mask_Ih6g3oHAsJDXb4o24PFEMQdZQ3nCouzA)" vector-effect="non-scaling-stroke" stroke-width="2" stroke="rgb(63,52,119)" stroke-linejoin="miter" stroke-linecap="square" stroke-miterlimit="3"/><path d=" M 715.501 287.966 L 593.15 198.599 L 642.351 189.242 L 746.031 261.546 L 715.501 287.966 Z " fill="rgb(63,52,119)"/><mask id="_mask_Iaj5FQDRefx6X1I1c2sd2NaMRp2BBYnX"><path d=" M 723.266 55.931 L 845.907 144.899 L 796.737 154.417 L 692.822 82.451 L 723.266 55.931 Z " fill="white" stroke="none"/></mask><path d=" M 723.266 55.931 L 845.907 144.899 L 796.737 154.417 L 692.822 82.451 L 723.266 55.931 Z " fill="rgb(88,127,194)"/><path d=" M 723.266 55.931 L 845.907 144.899 L 796.737 154.417 L 692.822 82.451 L 723.266 55.931 Z " fill="rgb(88,127,194)" mask="url(#_mask_Iaj5FQDRefx6X1I1c2sd2NaMRp2BBYnX)" vector-effect="non-scaling-stroke" stroke-width="2" stroke="rgb(88,127,194)" stroke-linejoin="miter" stroke-linecap="square" stroke-miterlimit="3"/></g></g></svg>