<?xml version="1.0" encoding="UTF-8" standalone="no"?><!-- Generator: Gravit.io --><svg xmlns="http://www.w3.org/2000/svg" xmlns:xlink="http://www.w3.org/1999/xlink" style="isolation:isolate" viewBox="580.426 223.752 200.241 86.915" width="200.241pt" height="86.915pt"><g><g clip-path="url(#_clipPath_1FZFq5MQa4C0eTJntbnDhsXJsyF7w0xV)"><text transform="matrix(1,0,0,1,637.333,286.494)" style="font-family:'Neuropol';font-weight:400;font-size:18px;font-style:normal;fill:#2d3059;stroke:none;">an José</text></g><defs><clipPath id="_clipPath_1FZFq5MQa4C0eTJntbnDhsXJsyF7w0xV"><rect x="0" y="0" width="143.333" height="41.992" transform="matrix(1,0,0,1,637.333,268.674)"/></clipPath></defs><g><g><path d=" M 611.325 269.473 L 618.592 262.73 L 633.537 275.065 L 629.724 285.409 L 611.325 269.473 Z " fill="rgb(63,52,119)"/><mask id="_mask_OEYDzVS7r3IbiSLKr4ZQ9ukqFbGb3BEu"><path d=" M 611.023 273.652 L 603.782 280.429 L 588.79 268.163 L 592.563 257.801 L 611.023 273.652 Z " fill="white" stroke="none"/></mask><path d=" M 611.023 273.652 L 603.782 280.429 L 588.79 268.163 L 592.563 257.801 L 611.023 273.652 Z " fill="rgb(88,127,194)"/><path d=" M 611.023 273.652 L 603.782 280.429 L 588.79 268.163 L 592.563 257.801 L 611.023 273.652 Z " fill="rgb(88,127,194)" mask="url(#_mask_OEYDzVS7r3IbiSLKr4ZQ9ukqFbGb3BEu)" vector-effect="non-scaling-stroke" stroke-width="2" stroke="rgb(88,127,194)" stroke-linejoin="miter" stroke-linecap="square" stroke-miterlimit="3"/><path d=" M 621.895 278.676 L 609.501 289.475 L 617.504 295.475 L 629.795 285.353 L 621.895 278.676 Z " fill="rgb(88,127,194)"/><mask id="_mask_ufR83gEcqgNrc8rs4FQMrXrxazC5ZZi6"><path d=" M 600.28 264.504 L 612.417 253.806 L 604.615 247.813 L 592.58 257.839 L 600.28 264.504 Z " fill="white" stroke="none"/></mask><path d=" M 600.28 264.504 L 612.417 253.806 L 604.615 247.813 L 592.58 257.839 L 600.28 264.504 Z " fill="rgb(63,52,119)"/><path d=" M 600.28 264.504 L 612.417 253.806 L 604.615 247.813 L 592.58 257.839 L 600.28 264.504 Z " fill="rgb(63,52,119)" mask="url(#_mask_ufR83gEcqgNrc8rs4FQMrXrxazC5ZZi6)" vector-effect="non-scaling-stroke" stroke-width="2" stroke="rgb(63,52,119)" stroke-linejoin="miter" stroke-linecap="square" stroke-miterlimit="3"/><path d=" M 610.111 302.586 L 580.426 278.771 L 592.363 276.277 L 617.518 295.546 L 610.111 302.586 Z " fill="rgb(63,52,119)"/><mask id="_mask_7Ftv307AhBK6AGKODpvr5FR8zoUXknif"><path d=" M 611.995 240.752 L 641.75 264.461 L 629.82 266.997 L 604.608 247.819 L 611.995 240.752 Z " fill="white" stroke="none"/></mask><path d=" M 611.995 240.752 L 641.75 264.461 L 629.82 266.997 L 604.608 247.819 L 611.995 240.752 Z " fill="rgb(88,127,194)"/><path d=" M 611.995 240.752 L 641.75 264.461 L 629.82 266.997 L 604.608 247.819 L 611.995 240.752 Z " fill="rgb(88,127,194)" mask="url(#_mask_7Ftv307AhBK6AGKODpvr5FR8zoUXknif)" vector-effect="non-scaling-stroke" stroke-width="2" stroke="rgb(88,127,194)" stroke-linejoin="miter" stroke-linecap="square" stroke-miterlimit="3"/></g></g></g></svg>